<svg id="Capa_1" data-name="Capa 1" xmlns="http://www.w3.org/2000/svg" viewBox="0 0 64 64"><defs><style>.cls-1{fill:#cfd1d2;}.cls-2{fill:#fff;}.cls-3{fill:#1c3f8e;}.cls-4{fill:#ebb503;}.cls-5{fill:#ebb505;}</style></defs><rect class="cls-1" x="-0.15" width="64" height="64"/><circle class="cls-2" cx="32" cy="32" r="30.71"/><path class="cls-3" d="M43.44,54.58v-37a.46.46,0,0,0-.46-.46H21a.46.46,0,0,0-.46.46v37A.47.47,0,0,0,21,55H43A.47.47,0,0,0,43.44,54.58ZM21.47,18H31.54V36.2H21.47ZM42.53,54.12H21.47v-11H42.53Zm0-11.95H21.47V37.11H42.53Zm0-6H32.46V18H42.53Z"/><path class="cls-3" d="M27.16,24.56H22.92a.47.47,0,0,0-.46.46v8.17a.46.46,0,0,0,.46.45h4.24a.45.45,0,0,0,.45-.45V25A.46.46,0,0,0,27.16,24.56Zm-.46,8.17H23.38V25.48H26.7Z"/><path class="cls-3" d="M29.8,20.6a.46.46,0,0,0-.45.46v13.5a.45.45,0,0,0,.45.45.46.46,0,0,0,.46-.45V21.06A.47.47,0,0,0,29.8,20.6Z"/><path class="cls-3" d="M34.1,35a.46.46,0,0,0,.46-.45V21.06a.47.47,0,0,0-.46-.46.46.46,0,0,0-.45.46v13.5A.45.45,0,0,0,34.1,35Z"/><path class="cls-3" d="M25.25,39.08h13.5a.46.46,0,1,0,0-.91H25.25a.46.46,0,1,0,0,.91Z"/><path class="cls-3" d="M25.25,45.26h13.5a.46.46,0,1,0,0-.91H25.25a.46.46,0,1,0,0,.91Z"/><rect class="cls-4" x="23.94" y="26.08" width="2.18" height="6.03"/><path class="cls-5" d="M35.08,14a.56.56,0,0,1-.39-.17,4,4,0,0,0-5.68,0,.54.54,0,0,1-.78-.76,5,5,0,0,1,7.24,0,.54.54,0,0,1,0,.77A.59.59,0,0,1,35.08,14Z"/><path class="cls-5" d="M26.59,12.24a.51.51,0,0,1-.38-.16.53.53,0,0,1,0-.77,8,8,0,0,1,11.29,0,.55.55,0,0,1-.78.77,6.88,6.88,0,0,0-9.74,0A.54.54,0,0,1,26.59,12.24Z"/><path class="cls-5" d="M33.51,15.62a.52.52,0,0,1-.4-.18,1.73,1.73,0,0,0-1.26-.55,1.7,1.7,0,0,0-1.25.55.54.54,0,0,1-.77,0,.53.53,0,0,1,0-.77,2.8,2.8,0,0,1,4.11,0,.55.55,0,0,1-.4.92Z"/></svg>