<svg id="Capa_1" data-name="Capa 1" xmlns="http://www.w3.org/2000/svg" viewBox="0 0 64 64"><defs><style>.cls-1{fill:#cfd1d2;}.cls-2{fill:#fff;}.cls-3{fill:#1c3f8e;}.cls-4{fill:#ebb505;}</style></defs><rect class="cls-1" width="64" height="64"/><circle class="cls-2" cx="32" cy="32" r="30.71"/><path class="cls-3" d="M38.18,38.89h6.48a.4.4,0,0,0,.4-.4V32.55a.4.4,0,0,0-.4-.4H38.18a.4.4,0,0,0-.4.4v5.94A.4.4,0,0,0,38.18,38.89Zm6.07-.81H41.83V33h2.42ZM38.58,33H41v5.13H38.58Z"/><path class="cls-3" d="M19.48,38.89H26a.4.4,0,0,0,.4-.4V32.55a.4.4,0,0,0-.4-.4H19.48a.4.4,0,0,0-.4.4v5.94a.4.4,0,0,0,.4.4Zm6.07-.81H23.12V33h2.43ZM19.88,33h2.44v5.13H19.88Z"/><path class="cls-3" d="M29.73,38.81a.4.4,0,0,0-.4.4v1.3a.4.4,0,0,0,.8,0v-1.3A.4.4,0,0,0,29.73,38.81Z"/><path class="cls-3" d="M14.14,49a.41.41,0,0,0,0,.81H49.86a.41.41,0,0,0,0-.81H47.43V30.15h2.43a.41.41,0,0,0,.27-.71L33.33,14.71a2,2,0,0,0-2.66,0L13.87,29.44a.41.41,0,0,0,.27.71h2.43V49Zm9,0v-1.1H40.88V49Zm5.47-3.82V35a.41.41,0,0,1,.41-.41h6a.41.41,0,0,1,.41.41V45.16Zm10.15.8v1.11H25.25V46ZM17,29.34H15.21l16-14a1.22,1.22,0,0,1,1.6,0l16,14H47a.4.4,0,0,0-.4.41V49H41.68V47.47a.4.4,0,0,0-.4-.4H39.55V45.56a.4.4,0,0,0-.4-.4H36.22V35A1.22,1.22,0,0,0,35,33.76H29A1.22,1.22,0,0,0,27.79,35V45.16H24.85a.4.4,0,0,0-.4.4v1.51H22.72a.4.4,0,0,0-.4.4V49H17.38V29.75a.4.4,0,0,0-.4-.41Z"/><path class="cls-3" d="M49.86,50H14.14a.64.64,0,0,1,0-1.27h2.2V30.38h-2.2a.64.64,0,0,1-.59-.41.65.65,0,0,1,.17-.7l16.8-14.73a2.25,2.25,0,0,1,3,0l16.8,14.73a.65.65,0,0,1,.17.7.64.64,0,0,1-.59.41h-2.2V48.75h2.2a.64.64,0,0,1,0,1.27Zm-35.72-.81a.17.17,0,0,0-.17.18.17.17,0,0,0,.17.17H49.86a.17.17,0,0,0,.17-.17.17.17,0,0,0-.17-.18H47.2V29.92h2.66a.18.18,0,0,0,.16-.11.17.17,0,0,0-.05-.2L33.18,14.88a1.79,1.79,0,0,0-2.36,0L14,29.61a.17.17,0,0,0,0,.2.18.18,0,0,0,.16.11H16.8V49.21Zm27,0H22.89V47.65H41.11Zm-17.76-.46h17.3V48.1H23.35Zm23.5.46h-5.4V47.47a.17.17,0,0,0-.17-.17h-2V45.56a.17.17,0,0,0-.17-.17H36V35a1,1,0,0,0-1-1H29a1,1,0,0,0-1,1V45.39H24.85a.17.17,0,0,0-.17.17V47.3h-2a.17.17,0,0,0-.17.17v1.74h-5.4V29.75a.18.18,0,0,0-.17-.18H14.6L31.05,15.14a1.46,1.46,0,0,1,1.9,0L49.4,29.57H47a.18.18,0,0,0-.17.18Zm-4.94-.46h4.48v-19a.64.64,0,0,1,.63-.64h1.16L32.65,15.49a1,1,0,0,0-1.3,0L15.82,29.11H17a.65.65,0,0,1,.63.64v19h4.48V47.47a.63.63,0,0,1,.63-.63h1.5V45.56a.63.63,0,0,1,.63-.63h2.71V35A1.45,1.45,0,0,1,29,33.53h6A1.45,1.45,0,0,1,36.45,35v10h2.7a.63.63,0,0,1,.63.63v1.28h1.5a.63.63,0,0,1,.63.63ZM39,47.3H25V45.73H39Zm-13.49-.46h13v-.65h-13Zm10.16-1.45H28.36V35a.63.63,0,0,1,.64-.64h6a.63.63,0,0,1,.64.64Zm-6.82-.46h6.36V35a.19.19,0,0,0-.18-.19H29a.18.18,0,0,0-.18.19Z"/><path class="cls-4" d="M36.05,27.94a.7.7,0,0,1-.49-.21,5,5,0,0,0-7.12,0,.69.69,0,0,1-1-1,6.37,6.37,0,0,1,9.1,0,.69.69,0,0,1,0,1A.71.71,0,0,1,36.05,27.94Z"/><path class="cls-4" d="M38.6,25.74a.71.71,0,0,1-.49-.2,8.62,8.62,0,0,0-12.22,0,.71.71,0,0,1-1,0,.69.69,0,0,1,0-1,10,10,0,0,1,14.18,0,.7.7,0,0,1,0,1A.71.71,0,0,1,38.6,25.74Z"/><path class="cls-4" d="M34.07,30a.68.68,0,0,1-.5-.22,2.15,2.15,0,0,0-3.14,0,.69.69,0,0,1-1-.93,3.51,3.51,0,0,1,5.16,0,.68.68,0,0,1,0,1A.69.69,0,0,1,34.07,30Z"/></svg>