<svg id="Capa_1" data-name="Capa 1" xmlns="http://www.w3.org/2000/svg" viewBox="0 0 64 64"><defs><style>.cls-1{fill:#cfd1d2;}.cls-2{fill:#fff;}.cls-3{fill:#1c3f8e;}.cls-4{fill:#ebb503;}</style></defs><rect class="cls-1" x="-0.17" width="64" height="64"/><circle class="cls-2" cx="32" cy="32" r="30.71"/><path class="cls-3" d="M42.54,51.08V16.41a.43.43,0,0,0-.43-.43H21.56a.43.43,0,0,0-.43.43V51.08a.43.43,0,0,0,.43.43H42.11A.43.43,0,0,0,42.54,51.08ZM22,16.84h9.43v17H22Zm19.7,33.81H22V40.32h19.7Zm0-11.18H22V34.73h19.7Zm0-5.6H32.26v-17h9.42Z"/><path class="cls-3" d="M25.52,36.57H38.15a.43.43,0,1,0,0-.85H25.52a.43.43,0,1,0,0,.85Z"/><path class="cls-3" d="M25.52,42.36H38.15a.43.43,0,0,0,.43-.43.43.43,0,0,0-.43-.43H25.52a.43.43,0,0,0-.43.43A.43.43,0,0,0,25.52,42.36Z"/><path class="cls-3" d="M50.07,13.76V31.41L45,33.68V16.46l5.12-2.7m.68-1.13-6.48,3.42V34.73l6.48-2.87V12.63Z"/><path class="cls-3" d="M13.93,13.76l5.12,2.7V33.68l-5.12-2.27V13.76m-.68-1.13V31.86l6.48,2.87V16.05l-6.48-3.42Z"/><path class="cls-3" d="M15.54,21l1.89,1v4.5l-1.89-.83V21m-.68-1.13v6.24l3.26,1.44v-6l-3.26-1.72Z"/><polygon class="cls-4" points="15.95 21.97 16.97 22.48 16.97 25.36 15.95 24.82 15.95 21.97"/><rect class="cls-4" x="22.5" y="28.53" width="8.41" height="0.89"/><rect class="cls-4" x="32.77" y="24.47" width="8.41" height="0.89"/><rect class="cls-4" x="32.77" y="20.29" width="8.41" height="0.89"/><rect class="cls-4" x="32.77" y="28.53" width="8.41" height="0.89"/><path class="cls-3" d="M43.4,13.28a.13.13,0,0,1-.13-.14v-.51a.14.14,0,0,1,.13-.14.14.14,0,0,1,.14.14v.51A.14.14,0,0,1,43.4,13.28Z"/><path class="cls-3" d="M43.4,36a.13.13,0,0,1-.13-.13v-1a.13.13,0,0,1,.13-.13.13.13,0,0,1,.14.13v1A.13.13,0,0,1,43.4,36Zm0-2.06a.13.13,0,0,1-.13-.14v-1a.13.13,0,0,1,.13-.14.14.14,0,0,1,.14.14v1A.14.14,0,0,1,43.4,33.92Zm0-2.07a.13.13,0,0,1-.13-.13v-1a.13.13,0,0,1,.13-.14.14.14,0,0,1,.14.14v1A.13.13,0,0,1,43.4,31.85Zm0-2.06a.13.13,0,0,1-.13-.14v-1a.13.13,0,0,1,.13-.13.13.13,0,0,1,.14.13v1A.14.14,0,0,1,43.4,29.79Zm0-2.06a.13.13,0,0,1-.13-.14v-1a.13.13,0,0,1,.13-.14.14.14,0,0,1,.14.14v1A.14.14,0,0,1,43.4,27.73Zm0-2.07a.13.13,0,0,1-.13-.13v-1a.13.13,0,0,1,.13-.13.13.13,0,0,1,.14.13v1A.13.13,0,0,1,43.4,25.66Zm0-2.06a.13.13,0,0,1-.13-.14v-1a.14.14,0,0,1,.13-.14.14.14,0,0,1,.14.14v1A.14.14,0,0,1,43.4,23.6Zm0-2.06a.14.14,0,0,1-.13-.14v-1a.13.13,0,0,1,.13-.14.14.14,0,0,1,.14.14v1A.14.14,0,0,1,43.4,21.54Zm0-2.07a.13.13,0,0,1-.13-.13v-1a.13.13,0,0,1,.13-.13.13.13,0,0,1,.14.13v1A.13.13,0,0,1,43.4,19.47Zm0-2.06a.13.13,0,0,1-.13-.14v-1a.13.13,0,0,1,.13-.14.14.14,0,0,1,.14.14v1A.14.14,0,0,1,43.4,17.41Zm0-2.07a.13.13,0,0,1-.13-.13v-1A.13.13,0,0,1,43.4,14a.14.14,0,0,1,.14.14v1A.13.13,0,0,1,43.4,15.34Z"/><path class="cls-3" d="M43.4,37.53a.13.13,0,0,1-.13-.14v-.51a.13.13,0,0,1,.13-.14.14.14,0,0,1,.14.14v.51A.14.14,0,0,1,43.4,37.53Z"/><path class="cls-3" d="M20.43,13.28a.14.14,0,0,1-.14-.14v-.51a.14.14,0,0,1,.28,0v.51A.14.14,0,0,1,20.43,13.28Z"/><path class="cls-3" d="M20.43,36a.13.13,0,0,1-.14-.13v-1a.14.14,0,0,1,.28,0v1A.13.13,0,0,1,20.43,36Zm0-2.06a.14.14,0,0,1-.14-.14v-1a.14.14,0,0,1,.28,0v1A.14.14,0,0,1,20.43,33.92Zm0-2.07a.13.13,0,0,1-.14-.13v-1a.14.14,0,0,1,.28,0v1A.13.13,0,0,1,20.43,31.85Zm0-2.06a.14.14,0,0,1-.14-.14v-1a.14.14,0,0,1,.28,0v1A.14.14,0,0,1,20.43,29.79Zm0-2.06a.14.14,0,0,1-.14-.14v-1a.14.14,0,1,1,.28,0v1A.14.14,0,0,1,20.43,27.73Zm0-2.07a.13.13,0,0,1-.14-.13v-1a.14.14,0,0,1,.28,0v1A.13.13,0,0,1,20.43,25.66Zm0-2.06a.14.14,0,0,1-.14-.14v-1a.14.14,0,0,1,.28,0v1A.14.14,0,0,1,20.43,23.6Zm0-2.06a.14.14,0,0,1-.14-.14v-1a.14.14,0,1,1,.28,0v1A.14.14,0,0,1,20.43,21.54Zm0-2.07a.13.13,0,0,1-.14-.13v-1a.14.14,0,0,1,.28,0v1A.13.13,0,0,1,20.43,19.47Zm0-2.06a.14.14,0,0,1-.14-.14v-1a.14.14,0,1,1,.28,0v1A.14.14,0,0,1,20.43,17.41Zm0-2.07a.13.13,0,0,1-.14-.13v-1a.14.14,0,0,1,.28,0v1A.13.13,0,0,1,20.43,15.34Z"/><path class="cls-3" d="M20.43,37.53a.14.14,0,0,1-.14-.14v-.51a.14.14,0,0,1,.28,0v.51A.14.14,0,0,1,20.43,37.53Z"/></svg>