<svg id="Capa_1" data-name="Capa 1" xmlns="http://www.w3.org/2000/svg" viewBox="0 0 64 64"><defs><style>.cls-1{fill:#cfd1d2;}.cls-2{fill:#fff;}.cls-3{fill:#1c3f8e;}.cls-4{fill:#ebb503;}.cls-5{fill:#18418c;}</style></defs><rect class="cls-1" width="64" height="64"/><circle class="cls-2" cx="32" cy="32" r="30.71"/><path class="cls-3" d="M39.52,51.54h-15a2.74,2.74,0,0,1-2.74-2.74V15.2a2.74,2.74,0,0,1,2.74-2.74h15a2.74,2.74,0,0,1,2.74,2.74V48.8A2.74,2.74,0,0,1,39.52,51.54Zm-15-38.3a2,2,0,0,0-2,2V48.8a2,2,0,0,0,2,2h15a2,2,0,0,0,2-2V15.2a2,2,0,0,0-2-2Z"/><circle class="cls-4" cx="27.06" cy="25.7" r="2.11"/><path class="cls-4" d="M39.06,26.48H31a.78.78,0,0,1,0-1.56h8.05a.78.78,0,0,1,0,1.56Z"/><path class="cls-5" d="M27,26.79a.42.42,0,0,1-.32-.16l-.85-1a.44.44,0,0,1-.09-.31.39.39,0,0,1,.15-.28.37.37,0,0,1,.26-.1.45.45,0,0,1,.33.15l.53.6,1.87-2.16a.42.42,0,0,1,.32-.15.4.4,0,0,1,.27.11.39.39,0,0,1,.15.28.44.44,0,0,1-.11.31l-2.19,2.53a.42.42,0,0,1-.32.15Z"/><path class="cls-2" d="M29.15,23.54a.37.37,0,0,1,.19.07.3.3,0,0,1,0,.41l-2.2,2.54a.29.29,0,0,1-.22.1h0a.28.28,0,0,1-.22-.11l-.85-1a.29.29,0,0,1,0-.41.26.26,0,0,1,.18-.07.3.3,0,0,1,.23.11l.63.7,2-2.27a.29.29,0,0,1,.22-.1m0-.26a.55.55,0,0,0-.42.19L27,25.52,26.52,25a.54.54,0,0,0-.42-.19.58.58,0,0,0-.35.13.56.56,0,0,0-.07.77l.85,1a.6.6,0,0,0,.42.2.55.55,0,0,0,.42-.19l2.19-2.54a.49.49,0,0,0,.13-.4.53.53,0,0,0-.18-.37.54.54,0,0,0-.36-.14Z"/><circle class="cls-4" cx="27.06" cy="32.66" r="2.11"/><path class="cls-4" d="M39.06,33.44H31a.78.78,0,0,1,0-1.56h8.05a.78.78,0,1,1,0,1.56Z"/><path class="cls-5" d="M27,33.75a.44.44,0,0,1-.32-.15l-.85-1a.41.41,0,0,1-.09-.31.39.39,0,0,1,.15-.28.41.41,0,0,1,.59.06l.53.59,1.87-2.16a.42.42,0,0,1,.32-.14.43.43,0,0,1,.42.39.41.41,0,0,1-.11.3L27.27,33.6a.39.39,0,0,1-.32.15Z"/><path class="cls-2" d="M29.15,30.5a.31.31,0,0,1,.19.08.3.3,0,0,1,0,.41l-2.2,2.53a.29.29,0,0,1-.22.1h0a.28.28,0,0,1-.22-.11l-.85-1a.29.29,0,0,1,0-.41.26.26,0,0,1,.18-.07.3.3,0,0,1,.23.11l.63.71,2-2.27a.27.27,0,0,1,.22-.11m0-.25a.55.55,0,0,0-.42.19l-1.77,2L26.52,32a.55.55,0,0,0-.42-.2.58.58,0,0,0-.35.13.54.54,0,0,0-.19.37.52.52,0,0,0,.12.4l.85,1a.56.56,0,0,0,.42.2.55.55,0,0,0,.42-.19l2.19-2.53a.5.5,0,0,0,.13-.4.55.55,0,0,0-.18-.38.53.53,0,0,0-.36-.13Z"/><circle class="cls-4" cx="27.06" cy="39.66" r="2.11"/><path class="cls-4" d="M39.06,40.45H31a.79.79,0,0,1,0-1.57h8.05a.79.79,0,0,1,0,1.57Z"/><path class="cls-5" d="M27,40.75a.41.41,0,0,1-.32-.15l-.85-1a.44.44,0,0,1,.06-.6.43.43,0,0,1,.59.06l.53.6,1.87-2.16a.39.39,0,0,1,.32-.15.45.45,0,0,1,.27.1.42.42,0,0,1,0,.6l-2.19,2.53a.42.42,0,0,1-.32.14Z"/><path class="cls-2" d="M29.15,37.51a.29.29,0,0,1,.22.48l-2.2,2.53a.26.26,0,0,1-.22.1h0a.27.27,0,0,1-.22-.1l-.85-1a.29.29,0,0,1,0-.41.3.3,0,0,1,.18-.06.29.29,0,0,1,.23.1l.63.71,2-2.27a.26.26,0,0,1,.22-.1m0-.26h0a.55.55,0,0,0-.42.19L27,39.49,26.52,39a.54.54,0,0,0-.42-.19.53.53,0,0,0-.35.13.52.52,0,0,0-.19.37.53.53,0,0,0,.12.4l.85,1a.56.56,0,0,0,.84,0l2.19-2.53a.49.49,0,0,0,.13-.4.55.55,0,0,0-.18-.38.59.59,0,0,0-.36-.13Z"/><circle class="cls-3" cx="32" cy="15.91" r="1.19"/></svg>