<svg id="Capa_1" data-name="Capa 1" xmlns="http://www.w3.org/2000/svg" viewBox="0 0 64 64"><defs><style>.cls-1{fill:#cfd1d2;}.cls-2{fill:#fff;}.cls-3,.cls-5{fill:#1c3f8e;}.cls-4{fill:#ebb503;}.cls-5{stroke:#1c3f8e;stroke-miterlimit:10;stroke-width:0.25px;}</style></defs><rect class="cls-1" x="-0.17" width="64" height="64"/><circle class="cls-2" cx="32" cy="32" r="30.71"/><path class="cls-3" d="M42.54,52.08V17.41a.43.43,0,0,0-.43-.43H21.56a.43.43,0,0,0-.43.43V52.08a.43.43,0,0,0,.43.43H42.11A.43.43,0,0,0,42.54,52.08ZM22,17.84h9.43v17H22Zm19.7,33.81H22V41.32h19.7Zm0-11.18H22V35.73h19.7Zm0-5.6H32.26v-17h9.42Z"/><path class="cls-3" d="M25.52,37.57H38.15a.43.43,0,1,0,0-.85H25.52a.43.43,0,1,0,0,.85Z"/><path class="cls-3" d="M25.52,43.36H38.15a.43.43,0,0,0,.43-.43.43.43,0,0,0-.43-.43H25.52a.43.43,0,0,0-.43.43A.43.43,0,0,0,25.52,43.36Z"/><path class="cls-3" d="M51.07,14.76V32.41L46,34.68V17.46l5.12-2.7m.68-1.13-6.48,3.42V35.73l6.48-2.87V13.63Z"/><path class="cls-3" d="M12.93,14.76l5.12,2.7V34.68l-5.12-2.27V14.76m-.68-1.13V32.86l6.48,2.87V17.05l-6.48-3.42Z"/><path class="cls-3" d="M14.54,22l1.89,1v4.5l-1.89-.83V22m-.68-1.13v6.24l3.26,1.44v-6l-3.26-1.72Z"/><polygon class="cls-4" points="14.95 22.97 15.97 23.48 15.97 26.36 14.95 25.82 14.95 22.97"/><rect class="cls-4" x="22.5" y="29.53" width="8.41" height="0.89"/><rect class="cls-4" x="32.77" y="25.47" width="8.41" height="0.89"/><rect class="cls-4" x="32.77" y="21.29" width="8.41" height="0.89"/><rect class="cls-4" x="32.77" y="29.53" width="8.41" height="0.89"/><path class="cls-5" d="M43.89,14.28a.13.13,0,0,1-.13-.14v-.51a.14.14,0,0,1,.13-.14.14.14,0,0,1,.14.14v.51A.14.14,0,0,1,43.89,14.28Z"/><path class="cls-5" d="M43.89,37a.13.13,0,0,1-.13-.13v-1a.13.13,0,0,1,.13-.13.13.13,0,0,1,.14.13v1A.13.13,0,0,1,43.89,37Zm0-2.06a.13.13,0,0,1-.13-.14v-1a.13.13,0,0,1,.13-.14.14.14,0,0,1,.14.14v1A.14.14,0,0,1,43.89,34.92Zm0-2.07a.13.13,0,0,1-.13-.13v-1a.13.13,0,0,1,.13-.14.14.14,0,0,1,.14.14v1A.13.13,0,0,1,43.89,32.85Zm0-2.06a.13.13,0,0,1-.13-.14v-1a.13.13,0,0,1,.13-.13.13.13,0,0,1,.14.13v1A.14.14,0,0,1,43.89,30.79Zm0-2.06a.13.13,0,0,1-.13-.14v-1a.13.13,0,0,1,.13-.14.14.14,0,0,1,.14.14v1A.14.14,0,0,1,43.89,28.73Zm0-2.07a.13.13,0,0,1-.13-.13v-1a.13.13,0,0,1,.13-.13.13.13,0,0,1,.14.13v1A.13.13,0,0,1,43.89,26.66Zm0-2.06a.13.13,0,0,1-.13-.14v-1a.14.14,0,0,1,.13-.14.14.14,0,0,1,.14.14v1A.14.14,0,0,1,43.89,24.6Zm0-2.06a.14.14,0,0,1-.13-.14v-1a.13.13,0,0,1,.13-.14.14.14,0,0,1,.14.14v1A.14.14,0,0,1,43.89,22.54Zm0-2.07a.13.13,0,0,1-.13-.13v-1a.13.13,0,0,1,.13-.13.13.13,0,0,1,.14.13v1A.13.13,0,0,1,43.89,20.47Zm0-2.06a.13.13,0,0,1-.13-.14v-1a.13.13,0,0,1,.13-.14.14.14,0,0,1,.14.14v1A.14.14,0,0,1,43.89,18.41Zm0-2.07a.13.13,0,0,1-.13-.13v-1a.13.13,0,0,1,.13-.14.14.14,0,0,1,.14.14v1A.13.13,0,0,1,43.89,16.34Z"/><path class="cls-5" d="M43.89,38.53a.13.13,0,0,1-.13-.14v-.51a.13.13,0,0,1,.13-.14.14.14,0,0,1,.14.14v.51A.14.14,0,0,1,43.89,38.53Z"/><path class="cls-5" d="M19.92,14.28a.13.13,0,0,1-.13-.14v-.51a.14.14,0,0,1,.13-.14.14.14,0,0,1,.14.14v.51A.14.14,0,0,1,19.92,14.28Z"/><path class="cls-5" d="M19.92,37a.13.13,0,0,1-.13-.13v-1a.13.13,0,0,1,.13-.13.13.13,0,0,1,.14.13v1A.13.13,0,0,1,19.92,37Zm0-2.06a.13.13,0,0,1-.13-.14v-1a.13.13,0,0,1,.13-.14.14.14,0,0,1,.14.14v1A.14.14,0,0,1,19.92,34.92Zm0-2.07a.13.13,0,0,1-.13-.13v-1a.13.13,0,0,1,.13-.14.14.14,0,0,1,.14.14v1A.13.13,0,0,1,19.92,32.85Zm0-2.06a.13.13,0,0,1-.13-.14v-1a.13.13,0,0,1,.13-.13.13.13,0,0,1,.14.13v1A.14.14,0,0,1,19.92,30.79Zm0-2.06a.13.13,0,0,1-.13-.14v-1a.13.13,0,0,1,.13-.14.14.14,0,0,1,.14.14v1A.14.14,0,0,1,19.92,28.73Zm0-2.07a.13.13,0,0,1-.13-.13v-1a.13.13,0,0,1,.13-.13.13.13,0,0,1,.14.13v1A.13.13,0,0,1,19.92,26.66Zm0-2.06a.13.13,0,0,1-.13-.14v-1a.14.14,0,0,1,.13-.14.14.14,0,0,1,.14.14v1A.14.14,0,0,1,19.92,24.6Zm0-2.06a.14.14,0,0,1-.13-.14v-1a.13.13,0,0,1,.13-.14.14.14,0,0,1,.14.14v1A.14.14,0,0,1,19.92,22.54Zm0-2.07a.13.13,0,0,1-.13-.13v-1a.13.13,0,0,1,.13-.13.13.13,0,0,1,.14.13v1A.13.13,0,0,1,19.92,20.47Zm0-2.06a.13.13,0,0,1-.13-.14v-1a.13.13,0,0,1,.13-.14.14.14,0,0,1,.14.14v1A.14.14,0,0,1,19.92,18.41Zm0-2.07a.13.13,0,0,1-.13-.13v-1a.13.13,0,0,1,.13-.14.14.14,0,0,1,.14.14v1A.13.13,0,0,1,19.92,16.34Z"/><path class="cls-5" d="M19.92,38.53a.13.13,0,0,1-.13-.14v-.51a.13.13,0,0,1,.13-.14.14.14,0,0,1,.14.14v.51A.14.14,0,0,1,19.92,38.53Z"/></svg>