<svg id="Capa_1" data-name="Capa 1" xmlns="http://www.w3.org/2000/svg" viewBox="0 0 64 64"><defs><style>.cls-1{fill:#cfd1d2;}.cls-2{fill:#fff;}.cls-3{fill:#1c3f8e;}.cls-4{fill:#ebb503;}</style></defs><rect class="cls-1" width="64" height="64"/><circle class="cls-2" cx="32" cy="32" r="30.71"/><path class="cls-3" d="M39.42,24.67H36.76v3.59H27.37V24.67H24.71v3.59h-2v7.07h2v3.59h2.66V35.33h9.39v3.59h2.66V35.33h2V28.26h-2Zm-2,13.57V25.35h1.3V38.24Zm-12,0V25.35h1.3V38.24Zm-.68-5H23.38V30.35h1.33Zm2.66-1.11h1.3v-.67h-1.3V30.35h9.39v1.11h-1.3v.67h1.3v1.11H27.37Zm12.05-1.78h1.34v2.89H39.42Zm-2.66-1.41v.73H27.37v-.73Zm-12,0v.73H23.38v-.73Zm-1.33,5.71v-.73h1.33v.73Zm4,0v-.73h9.39v.73Zm12.05,0v-.73h1.34v.73Zm1.34-5.71v.73H39.42v-.73Z"/><path class="cls-3" d="M10.57,21h-1V18.19l.61.12,1.66.3.5.09-.18,1-.5-.09-1.07-.19Z"/><path class="cls-3" d="M33.08,21.8l0-1h.51c1,0,2-.08,3.12-.15l.5,0,.07,1-.51,0c-1.11.08-2.17.13-3.15.16Zm-2.15,0-.51,0c-1,0-2.05-.08-3.16-.16l-.51,0,.07-1,.51,0c1.1.07,2.15.13,3.12.15l.51,0Zm8.45-.38-.1-1,.51,0c1-.1,2.05-.21,3.11-.34l.51-.06.12,1L43,21c-1.07.13-2.12.25-3.13.35Zm-14.76,0-.51-.05c-1-.1-2.05-.22-3.13-.35l-.5-.06.12-1,.5.06c1.07.13,2.12.24,3.11.34l.51.05Zm21-.73-.14-1L46,19.6l3.09-.47.51-.08.16,1-.51.08-3.11.47Zm-27.28,0-.5-.07-3.12-.47-.5-.08.16-1,.5.08,3.1.46.5.07Z"/><path class="cls-3" d="M54.45,21h-1V19.42l-1.07.2-.5.09-.18-1,.5-.09,1.66-.3.61-.12Z"/><path class="cls-3" d="M54.45,40.66h-1v-4.3h1Zm0-6.55h-1V29.82h1Zm0-6.55h-1V23.27h1Z"/><path class="cls-3" d="M54.45,45.81l-.66-.2s-.56-.18-1.61-.43l-.49-.12.23-1,.5.12,1,.26V42.91h1Z"/><path class="cls-3" d="M49.63,44.64l-.5-.1c-1-.18-2-.35-3.09-.5l-.5-.07.14-1,.51.08c1.07.15,2.12.32,3.12.5l.5.09Zm-35.25,0-.19-1,.5-.09c1-.18,2.06-.35,3.13-.51l.5-.07.15,1L18,44c-1.05.15-2.09.32-3.08.5Zm29.07-.92-.51-.05c-1-.11-2.07-.2-3.12-.28l-.5,0,.07-1,.51,0c1.06.07,2.12.17,3.15.28l.5.05Zm-22.89,0-.11-1,.51-.05c1-.11,2.09-.21,3.15-.28l.51,0,.07,1-.51,0c-1,.08-2.09.17-3.11.28Zm6.24-.49-.05-1,.51,0c1,0,2.1-.07,3.16-.09h.51l0,1h-.51c-1.05,0-2.11,0-3.13.09Zm10.41,0-.51,0c-1,0-2.08-.07-3.13-.09h-.51v-1h.51c1.06,0,2.12,0,3.16.09l.51,0Z"/><path class="cls-3" d="M9.55,45.81v-2.9h1v1.54l1-.26.5-.12.23,1-.49.12c-1.05.25-1.6.42-1.61.43Z"/><path class="cls-3" d="M10.57,40.66h-1v-4.3h1Zm0-6.55h-1V29.82h1Zm0-6.55h-1V23.27h1Z"/><path class="cls-4" d="M12.27,26.13a.39.39,0,0,0,.31-.15,14.18,14.18,0,0,1,3.78-3.2.42.42,0,0,0,.16-.57.41.41,0,0,0-.56-.16,15,15,0,0,0-4,3.38A.41.41,0,0,0,12,26,.4.4,0,0,0,12.27,26.13Z"/><path class="cls-4" d="M12,29.11a.42.42,0,0,0,0,.59.41.41,0,0,0,.59,0,27,27,0,0,1,8.71-6.43.4.4,0,0,0,.21-.54.4.4,0,0,0-.54-.22A27.82,27.82,0,0,0,12,29.11Z"/></svg>