<svg id="Capa_1" data-name="Capa 1" xmlns="http://www.w3.org/2000/svg" viewBox="0 0 64 64"><defs><style>.cls-1{fill:#cfd1d2;}.cls-2,.cls-5{fill:#fff;}.cls-3{fill:#1c3f8e;}.cls-4{fill:#ebb503;}.cls-5,.cls-6{stroke:#fff;stroke-miterlimit:10;stroke-width:0.2px;}.cls-6{fill:#18418c;}</style></defs><rect class="cls-1" width="64" height="64"/><circle class="cls-2" cx="32" cy="32" r="30.71"/><path class="cls-3" d="M40.66,54.5H23.34a3.16,3.16,0,0,1-3.15-3.16V12.66A3.16,3.16,0,0,1,23.34,9.5H40.66a3.16,3.16,0,0,1,3.15,3.16V51.34A3.16,3.16,0,0,1,40.66,54.5ZM23.34,10.4a2.26,2.26,0,0,0-2.26,2.26V51.34a2.26,2.26,0,0,0,2.26,2.26H40.66a2.26,2.26,0,0,0,2.26-2.26V12.66a2.26,2.26,0,0,0-2.26-2.26Z"/><circle class="cls-4" cx="26.31" cy="24.74" r="2.43"/><path class="cls-4" d="M40.12,25.64H30.86a.9.9,0,1,1,0-1.79h9.26a.9.9,0,1,1,0,1.79Z"/><circle class="cls-4" cx="26.31" cy="32.76" r="2.43"/><path class="cls-4" d="M40.12,33.66H30.86a.9.9,0,1,1,0-1.8h9.26a.9.9,0,0,1,0,1.8Z"/><path class="cls-5" d="M28.71,30.28a.35.35,0,0,1,.22.08.33.33,0,0,1,0,.47l-2.52,2.92a.37.37,0,0,1-.26.12h0a.38.38,0,0,1-.26-.13l-1-1.12a.34.34,0,0,1,.26-.55.32.32,0,0,1,.26.12l.73.82,2.26-2.62a.36.36,0,0,1,.25-.11m0-.3a.62.62,0,0,0-.47.22l-2,2.36L25.7,32a.64.64,0,0,0-1.12.35.64.64,0,0,0,.15.46l1,1.13a.6.6,0,0,0,.47.22.63.63,0,0,0,.49-.22L29.19,31A.64.64,0,0,0,28.71,30Z"/><path class="cls-6" d="M26.19,34a.47.47,0,0,1-.37-.17l-1-1.12a.52.52,0,0,1-.11-.36A.53.53,0,0,1,24.9,32a.49.49,0,0,1,.69.07l.61.68,2.15-2.48a.46.46,0,0,1,.36-.17.47.47,0,0,1,.32.12.47.47,0,0,1,.17.33.46.46,0,0,1-.12.35l-2.52,2.92a.51.51,0,0,1-.37.16Z"/><path class="cls-5" d="M28.71,22.26a.3.3,0,0,1,.22.08.33.33,0,0,1,0,.47l-2.52,2.92a.36.36,0,0,1-.26.11h0a.34.34,0,0,1-.26-.12L25,24.6a.34.34,0,0,1,.05-.47.29.29,0,0,1,.21-.08.32.32,0,0,1,.26.12l.73.82,2.26-2.62a.36.36,0,0,1,.25-.11m0-.3a.62.62,0,0,0-.47.22l-2,2.36L25.7,24a.64.64,0,0,0-.49-.22.6.6,0,0,0-.4.15.63.63,0,0,0-.23.43.66.66,0,0,0,.15.46l1,1.13a.64.64,0,0,0,.47.22.63.63,0,0,0,.49-.22L29.19,23a.65.65,0,0,0,.16-.46.67.67,0,0,0-.22-.44.64.64,0,0,0-.42-.15Z"/><path class="cls-6" d="M26.19,26a.47.47,0,0,1-.37-.17l-1-1.12a.53.53,0,0,1-.11-.36.48.48,0,0,1,.48-.44.48.48,0,0,1,.38.18l.61.68,2.15-2.49a.48.48,0,0,1,.36-.16.47.47,0,0,1,.32.12.47.47,0,0,1,.17.33.46.46,0,0,1-.12.35l-2.52,2.91a.48.48,0,0,1-.37.17Z"/><circle class="cls-4" cx="26.31" cy="40.82" r="2.43"/><path class="cls-4" d="M40.12,41.72H30.86a.9.9,0,1,1,0-1.8h9.26a.9.9,0,0,1,0,1.8Z"/><path class="cls-5" d="M28.71,38.34a.34.34,0,0,1,.26.56l-2.52,2.91a.34.34,0,0,1-.26.12h0a.37.37,0,0,1-.26-.12l-1-1.13a.34.34,0,0,1,.05-.47.33.33,0,0,1,.21-.07.32.32,0,0,1,.26.12l.73.81,2.26-2.61a.33.33,0,0,1,.25-.12m0-.3h0a.62.62,0,0,0-.47.22l-2,2.36-.49-.56a.65.65,0,0,0-.89-.08.66.66,0,0,0-.23.43.64.64,0,0,0,.15.46l1,1.13a.65.65,0,0,0,.47.23.63.63,0,0,0,.49-.22l2.52-2.92A.64.64,0,0,0,28.71,38Z"/><path class="cls-6" d="M26.19,42.08a.47.47,0,0,1-.37-.18l-1-1.12a.49.49,0,0,1,.75-.62l.61.69,2.15-2.49a.46.46,0,0,1,.36-.17.53.53,0,0,1,.32.12.49.49,0,0,1,0,.69l-2.52,2.91a.48.48,0,0,1-.37.17Z"/><circle class="cls-3" cx="32" cy="13.48" r="1.37"/></svg>