<svg id="Capa_1" data-name="Capa 1" xmlns="http://www.w3.org/2000/svg" viewBox="0 0 64 64"><defs><style>.cls-1{fill:#cfd1d2;}.cls-2{fill:#fff;}.cls-3{fill:#1c3f8e;}.cls-4{fill:#ebb505;}</style></defs><rect class="cls-1" width="64" height="64"/><circle class="cls-2" cx="32" cy="32" r="30.71"/><path class="cls-3" d="M38.61,38.36h6.91a.43.43,0,0,0,.43-.43V31.59a.43.43,0,0,0-.43-.43H38.61a.43.43,0,0,0-.43.43v6.34A.43.43,0,0,0,38.61,38.36Zm6.48-.86H42.5V32h2.59ZM39,32h2.6V37.5H39Z"/><path class="cls-3" d="M18.62,38.36h6.92a.43.43,0,0,0,.43-.43V31.59a.43.43,0,0,0-.43-.43H18.62a.43.43,0,0,0-.43.43v6.34a.43.43,0,0,0,.43.43Zm6.49-.86H22.52V32h2.59ZM19.06,32h2.59V37.5H19.06Z"/><path class="cls-3" d="M29.58,38.27a.43.43,0,0,0-.43.43v1.39a.43.43,0,0,0,.43.43.43.43,0,0,0,.43-.43V38.7A.44.44,0,0,0,29.58,38.27Z"/><path class="cls-3" d="M12.92,49.15a.43.43,0,0,0-.43.43.43.43,0,0,0,.43.43H51.08a.43.43,0,0,0,.43-.43.43.43,0,0,0-.43-.43h-2.6V29h2.6a.44.44,0,0,0,.41-.28.44.44,0,0,0-.12-.47L33.42,12.53a2.16,2.16,0,0,0-2.84,0L12.63,28.27a.44.44,0,0,0-.12.47.44.44,0,0,0,.41.28h2.6V49.15Zm9.59,0V48h19v1.19Zm5.85-4.09V34.18a.43.43,0,0,1,.44-.44h6.41a.44.44,0,0,1,.44.44V45.06Zm10.85.86V47.1H24.79V45.92ZM16,28.16H14.06l17.09-15a1.3,1.3,0,0,1,1.7,0l17.09,15H48.05a.43.43,0,0,0-.43.43V49.15H42.35V47.53a.43.43,0,0,0-.43-.43H40.07V45.49a.43.43,0,0,0-.43-.43H36.51V34.18a1.3,1.3,0,0,0-1.3-1.3H28.8a1.3,1.3,0,0,0-1.3,1.3V45.06H24.36a.43.43,0,0,0-.43.43V47.1H22.08a.43.43,0,0,0-.43.43v1.62H16.38V28.59a.43.43,0,0,0-.43-.43Z"/><path class="cls-3" d="M51.08,50.25H12.92a.68.68,0,1,1,0-1.35h2.35V29.27H12.92a.67.67,0,0,1-.63-.44.68.68,0,0,1,.18-.75l18-15.74a2.4,2.4,0,0,1,3.16,0l18,15.74a.68.68,0,0,1,.18.75.67.67,0,0,1-.63.44H48.73V48.9h2.35a.68.68,0,1,1,0,1.35Zm-38.16-.86a.18.18,0,0,0-.19.19.18.18,0,0,0,.19.18H51.08a.18.18,0,0,0,.19-.18.18.18,0,0,0-.19-.19H48.24V28.78h2.84a.2.2,0,0,0,.18-.12.22.22,0,0,0,0-.21l-18-15.74a1.92,1.92,0,0,0-2.52,0L12.79,28.45a.21.21,0,0,0,0,.2.19.19,0,0,0,.18.13h2.84V49.39Zm28.81,0H22.27V47.72H41.73Zm-19-.49H41.24v-.69H22.76Zm25.11.49H42.1V47.53a.18.18,0,0,0-.18-.18h-2.1V45.49a.19.19,0,0,0-.18-.19H36.26V34.18a1,1,0,0,0-1-1H28.8a1.06,1.06,0,0,0-1.06,1V45.3H24.36a.19.19,0,0,0-.18.19v1.86h-2.1a.18.18,0,0,0-.18.18v1.86H16.13V28.59a.18.18,0,0,0-.18-.18H13.41L31,13a1.52,1.52,0,0,1,2,0L50.59,28.41H48.05a.18.18,0,0,0-.18.18Zm-5.28-.49h4.79V28.59a.67.67,0,0,1,.67-.67h1.24L32.69,13.36a1,1,0,0,0-1.38,0L14.71,27.92H16a.67.67,0,0,1,.47.19.67.67,0,0,1,.2.48V48.9h4.79V47.53a.67.67,0,0,1,.67-.67h1.61V45.49a.68.68,0,0,1,.67-.68h2.89V34.18a1.55,1.55,0,0,1,1.55-1.54h6.41a1.54,1.54,0,0,1,1.54,1.54V44.81h2.89a.68.68,0,0,1,.67.68v1.37h1.61a.67.67,0,0,1,.67.67Zm-3.14-1.55H24.55V45.67h14.9ZM25,46.86H39v-.7H25ZM35.89,45.3H28.11V34.18a.68.68,0,0,1,.69-.68h6.41a.67.67,0,0,1,.68.68Zm-7.29-.49h6.8V34.18a.18.18,0,0,0-.19-.19H28.8a.19.19,0,0,0-.2.19Z"/><path class="cls-4" d="M36.33,26.66a.7.7,0,0,1-.52-.22,5.31,5.31,0,0,0-7.62,0,.73.73,0,0,1-1,0,.74.74,0,0,1,0-1,6.81,6.81,0,0,1,9.72,0,.74.74,0,0,1,0,1A.75.75,0,0,1,36.33,26.66Z"/><path class="cls-4" d="M39.05,24.31a.72.72,0,0,1-.52-.22,9.22,9.22,0,0,0-13.06,0,.73.73,0,0,1-1,0,.72.72,0,0,1,0-1,10.67,10.67,0,0,1,15.14,0,.72.72,0,0,1,0,1A.7.7,0,0,1,39.05,24.31Z"/><path class="cls-4" d="M34.22,28.84a.71.71,0,0,1-.54-.24,2.3,2.3,0,0,0-3.36,0,.74.74,0,0,1-1,0,.75.75,0,0,1,0-1A3.82,3.82,0,0,1,32,26.4a3.78,3.78,0,0,1,2.75,1.2.73.73,0,0,1-.53,1.24Z"/></svg>