<svg id="Capa_1" data-name="Capa 1" xmlns="http://www.w3.org/2000/svg" viewBox="0 0 64 64"><defs><style>.cls-1{fill:#cfd1d2;}.cls-2{fill:#fff;}.cls-3{fill:#1c3f8e;}.cls-4{fill:#ebb503;}</style></defs><rect class="cls-1" width="64" height="64"/><circle class="cls-2" cx="32" cy="31.58" r="30.71"/><path class="cls-3" d="M20.07,22.67a3.2,3.2,0,0,1-3.2-3.19V18.32a3.2,3.2,0,0,1,6.39,0v1.17A3.19,3.19,0,0,1,20.07,22.67Zm0-6.31a2,2,0,0,0-1.95,2v1.16a1.95,1.95,0,0,0,3.9,0V18.31A2,2,0,0,0,20.07,16.36Z"/><path class="cls-3" d="M24.15,48a.63.63,0,0,1-.6-.45L21.73,41,16.9,36.53a4,4,0,0,1-1.28-2.91V26.19a3.3,3.3,0,0,1,3.29-3.29h.58a4,4,0,0,1,3.72,2.63l1.11,3.1,2.19.8a2,2,0,0,1-1.07,3.81l-3.77-.76a.65.65,0,0,1-.43-.33L19.5,28.74a.62.62,0,0,1,1.11-.56l1.6,3.14,3.48.7a.74.74,0,0,0,.4-1.42l-2.46-.9a.63.63,0,0,1-.38-.37L22,25.94a2.72,2.72,0,0,0-2.55-1.8h-.58a2.05,2.05,0,0,0-2.05,2.05v7.43a2.74,2.74,0,0,0,.88,2l5,4.57a.68.68,0,0,1,.18.29l1.87,6.69a.62.62,0,0,1-.43.76A.5.5,0,0,1,24.15,48Z"/><path class="cls-3" d="M26.6,47.93a.63.63,0,0,1-.62-.56l-.7-7.19a2.64,2.64,0,0,0-.61-1.46L20.9,34.14a.58.58,0,0,1-.15-.39V31.43a.63.63,0,0,1,1.25,0v2.1l3.63,4.4a4,4,0,0,1,.89,2.13l.7,7.19a.63.63,0,0,1-.56.68Z"/><path class="cls-3" d="M15.68,47.77h-.09a.62.62,0,0,1-.52-.71l1.64-10.74a.62.62,0,0,1,1.23.19L16.29,47.25A.61.61,0,0,1,15.68,47.77Z"/><path class="cls-3" d="M18.26,47.92l-.19,0a.62.62,0,0,1-.4-.78l2.47-7.81a.62.62,0,1,1,1.19.37l-2.48,7.81A.62.62,0,0,1,18.26,47.92Z"/><path class="cls-3" d="M46.16,45.77a.62.62,0,0,1-.62-.62V31.49H30.76a.62.62,0,0,1-.62-.62.62.62,0,0,1,.62-.62h15.4a.61.61,0,0,1,.62.62V45.15A.62.62,0,0,1,46.16,45.77Z"/><path class="cls-3" d="M41.94,31.46a.62.62,0,0,1-.62-.62V21.68H31.1a.63.63,0,0,1,0-1.25H41.94a.62.62,0,0,1,.62.63v9.78A.62.62,0,0,1,41.94,31.46Z"/><path class="cls-3" d="M30.75,42a.62.62,0,0,1-.62-.62V17.91a.51.51,0,0,0-.52-.51H26.72a.62.62,0,1,1,0-1.24h2.89a1.76,1.76,0,0,1,1.76,1.75V41.38A.62.62,0,0,1,30.75,42Z"/><path class="cls-3" d="M48.32,48a.62.62,0,0,1-.62-.62v-1a.51.51,0,0,0-.51-.51H34.44a.62.62,0,0,1,0-1.24H47.19a1.76,1.76,0,0,1,1.75,1.75v1A.62.62,0,0,1,48.32,48Z"/><path class="cls-3" d="M31.56,47.82A3.39,3.39,0,1,1,35,44.43,3.39,3.39,0,0,1,31.56,47.82Zm0-5.54a2.15,2.15,0,1,0,2.15,2.15A2.15,2.15,0,0,0,31.56,42.28Z"/><path class="cls-3" d="M40.83,35.81h-4.3a.62.62,0,0,1-.62-.62V31.08a.62.62,0,0,1,.62-.62.62.62,0,0,1,.62.62v3.49h3.06V31.08a.62.62,0,1,1,1.24,0v4.11A.62.62,0,0,1,40.83,35.81Z"/><rect class="cls-4" x="37.66" y="32.01" width="2.04" height="2.04"/><circle class="cls-4" cx="31.56" cy="44.43" r="1.28"/></svg>