<svg id="Capa_1" data-name="Capa 1" xmlns="http://www.w3.org/2000/svg" viewBox="0 0 64 64"><defs><style>.cls-1{fill:#cfd1d2;}.cls-2{fill:#fff;}.cls-3{fill:#1c3f8e;}.cls-4{fill:#ebb503;}</style></defs><rect class="cls-1" width="64" height="64"/><circle class="cls-2" cx="32" cy="32" r="30.71"/><path class="cls-3" d="M27.17,42.8v2.53H25a.77.77,0,0,0-.76.77.76.76,0,0,0,.76.76H39a.76.76,0,0,0,.76-.76.77.77,0,0,0-.76-.77h-2.2V42.8H35.3v2.53H28.7V42.8Z"/><path class="cls-4" d="M13.81,26.26a.44.44,0,0,0,.35-.16,16,16,0,0,1,4.22-3.58.48.48,0,0,0,.19-.64.46.46,0,0,0-.63-.18,16.86,16.86,0,0,0-4.48,3.79.47.47,0,0,0,0,.66A.51.51,0,0,0,13.81,26.26Z"/><path class="cls-4" d="M13.47,29.6a.46.46,0,0,0,.34.78.49.49,0,0,0,.35-.15A29.89,29.89,0,0,1,23.91,23a.47.47,0,0,0-.38-.86A31,31,0,0,0,13.47,29.6Z"/><path class="cls-3" d="M32,36.19a.41.41,0,0,1-.16,0,.4.4,0,0,1-.22-.34V31.68l-2.5,2a.37.37,0,0,1-.53-.07.38.38,0,0,1,.06-.53l3-2.33-3-2.57a.38.38,0,1,1,.5-.57l2.48,2.16V25.42a.38.38,0,0,1,.64-.27l3.11,3a.38.38,0,0,1,.12.29.4.4,0,0,1-.14.27l-2.56,2L35.36,33a.41.41,0,0,1,.13.29.37.37,0,0,1-.14.29l-3.11,2.54A.43.43,0,0,1,32,36.19Zm.38-4.79V35l2.15-1.75Zm0-5.09v3.82l2.16-1.71Z"/><path class="cls-3" d="M10.63,17.14V43.62a91.61,91.61,0,0,1,42.74,0V17.14A91.61,91.61,0,0,1,10.63,17.14ZM51.86,41.79a103.67,103.67,0,0,0-39.72,0V19a103.67,103.67,0,0,0,39.72,0Z"/></svg>