<svg id="Capa_1" data-name="Capa 1" xmlns="http://www.w3.org/2000/svg" viewBox="0 0 64 64"><defs><style>.cls-1{fill:#cfd1d2;}.cls-2{fill:#fff;}.cls-3{fill:#1c3f8e;}.cls-4{fill:#ebb503;}.cls-5{fill:#ebb505;}</style></defs><rect class="cls-1" x="-0.15" width="64" height="64"/><circle class="cls-2" cx="32" cy="32" r="30.71"/><path class="cls-3" d="M44.44,55.57V15.26a.49.49,0,0,0-.49-.49H20.05a.49.49,0,0,0-.49.49V55.57a.49.49,0,0,0,.49.49H44A.49.49,0,0,0,44.44,55.57ZM20.55,15.76h11v19.8H20.55Zm22.9,39.31H20.55v-12h22.9Zm0-13H20.55V36.56h22.9Zm0-6.51h-11V15.76h11Z"/><path class="cls-3" d="M26.73,22.91H22.12a.5.5,0,0,0-.5.5v8.88a.5.5,0,0,0,.5.5h4.61a.5.5,0,0,0,.5-.5V23.41A.5.5,0,0,0,26.73,22.91Zm-.49,8.89H22.62V23.9h3.62Z"/><path class="cls-3" d="M29.61,18.6a.5.5,0,0,0-.5.5V33.78a.5.5,0,0,0,.5.5.5.5,0,0,0,.5-.5V19.1A.5.5,0,0,0,29.61,18.6Z"/><path class="cls-3" d="M34.29,34.28a.49.49,0,0,0,.49-.5V19.1a.5.5,0,1,0-1,0V33.78A.5.5,0,0,0,34.29,34.28Z"/><path class="cls-3" d="M24.66,38.7H39.34a.5.5,0,1,0,0-1H24.66a.5.5,0,1,0,0,1Z"/><path class="cls-3" d="M24.66,45.43H39.34a.5.5,0,0,0,.5-.5.5.5,0,0,0-.5-.5H24.66a.5.5,0,0,0-.5.5A.5.5,0,0,0,24.66,45.43Z"/><rect class="cls-4" x="23.36" y="24.92" width="2.11" height="5.84"/><path class="cls-5" d="M35.35,11.41a.59.59,0,0,1-.42-.18,4.32,4.32,0,0,0-6.18,0,.59.59,0,0,1-.85-.83,5.51,5.51,0,0,1,7.88,0,.59.59,0,0,1,0,.84A.58.58,0,0,1,35.35,11.41Z"/><path class="cls-5" d="M26.12,9.5a.57.57,0,0,1-.42-.17.58.58,0,0,1,0-.84A8.67,8.67,0,0,1,38,8.49a.59.59,0,1,1-.84.84,7.48,7.48,0,0,0-10.6,0A.58.58,0,0,1,26.12,9.5Z"/><path class="cls-5" d="M33.64,13.18A.63.63,0,0,1,33.2,13a1.84,1.84,0,0,0-2.72,0,.6.6,0,0,1-.84,0,.59.59,0,0,1,0-.84,3.09,3.09,0,0,1,2.24-1,3.05,3.05,0,0,1,2.23,1A.59.59,0,0,1,34,13,.61.61,0,0,1,33.64,13.18Z"/></svg>